<?xml version="1.0" standalone="no"?>
<!DOCTYPE svg PUBLIC "-//W3C//DTD SVG 20010904//EN"
 "http://www.w3.org/TR/2001/REC-SVG-20010904/DTD/svg10.dtd">
<svg version="1.0" xmlns="http://www.w3.org/2000/svg"
 width="700.000000pt" height="700.000000pt" viewBox="0 0 700.000000 700.000000"
 preserveAspectRatio="xMidYMid meet">
<metadata>
Created by potrace 1.11, written by Peter Selinger 2001-2013
</metadata>
<g transform="translate(0.000000,700.000000) scale(0.100000,-0.100000)"
fill="#000000" stroke="none">
<path d="M3215 6989 c-819 -70 -1561 -407 -2143 -974 -172 -167 -300 -314
-420 -482 -343 -479 -551 -1019 -628 -1628 -25 -194 -25 -604 -1 -805 100
-820 454 -1537 1043 -2110 565 -550 1260 -876 2069 -972 144 -17 586 -17 730
0 547 65 1042 235 1486 512 228 143 411 290 624 504 292 293 481 555 661 916
461 927 483 2015 62 2970 -182 414 -427 761 -770 1095 -588 573 -1324 905
-2163 975 -140 11 -407 11 -550 -1z m282 -1184 c51 -26 91 -72 113 -130 6 -16
33 -411 60 -880 27 -467 52 -880 55 -918 11 -114 70 -265 138 -352 17 -22 236
-276 487 -565 250 -289 465 -545 477 -569 29 -57 30 -139 3 -200 -26 -56 -155
-185 -211 -211 -55 -25 -141 -26 -191 -2 -20 9 -342 284 -715 610 -498 436
-689 608 -719 651 -58 83 -86 160 -91 256 -5 95 113 2124 127 2176 13 48 75
118 124 140 33 15 66 19 167 19 114 0 130 -2 176 -25z"/>
</g>
</svg>
